<svg width="40" height="40" viewBox="0 0 40 40" fill="none" xmlns="http://www.w3.org/2000/svg">
<path d="M20.0002 3.33331C17.8115 3.33331 15.6442 3.76441 13.6221 4.60199C11.6 5.43957 9.76269 6.66722 8.21505 8.21487C5.08944 11.3405 3.3335 15.5797 3.3335 20C3.3335 27.3666 8.11683 33.6166 14.7335 35.8333C15.5668 35.9666 15.8335 35.45 15.8335 35V32.1833C11.2168 33.1833 10.2335 29.95 10.2335 29.95C9.46683 28.0166 8.3835 27.5 8.3835 27.5C6.86683 26.4666 8.50016 26.5 8.50016 26.5C10.1668 26.6166 11.0502 28.2166 11.0502 28.2166C12.5002 30.75 14.9502 30 15.9002 29.6C16.0502 28.5166 16.4835 27.7833 16.9502 27.3666C13.2502 26.95 9.36683 25.5166 9.36683 19.1666C9.36683 17.3166 10.0002 15.8333 11.0835 14.65C10.9168 14.2333 10.3335 12.5 11.2502 10.25C11.2502 10.25 12.6502 9.79998 15.8335 11.95C17.1502 11.5833 18.5835 11.4 20.0002 11.4C21.4168 11.4 22.8502 11.5833 24.1668 11.95C27.3502 9.79998 28.7502 10.25 28.7502 10.25C29.6668 12.5 29.0835 14.2333 28.9168 14.65C30.0002 15.8333 30.6335 17.3166 30.6335 19.1666C30.6335 25.5333 26.7335 26.9333 23.0168 27.35C23.6168 27.8666 24.1668 28.8833 24.1668 30.4333V35C24.1668 35.45 24.4335 35.9833 25.2835 35.8333C31.9002 33.6 36.6668 27.3666 36.6668 20C36.6668 17.8113 36.2357 15.644 35.3982 13.6219C34.5606 11.5998 33.3329 9.76251 31.7853 8.21487C30.2376 6.66722 28.4003 5.43957 26.3782 4.60199C24.3561 3.76441 22.1889 3.33331 20.0002 3.33331Z" fill="black"/>
</svg>
