<svg width="40" height="40" viewBox="0 0 40 40" fill="none" xmlns="http://www.w3.org/2000/svg">
<path d="M12.9997 3.33334H26.9997C32.333 3.33334 36.6663 7.66668 36.6663 13V27C36.6663 29.5638 35.6479 32.0225 33.835 33.8354C32.0222 35.6482 29.5634 36.6667 26.9997 36.6667H12.9997C7.66634 36.6667 3.33301 32.3333 3.33301 27V13C3.33301 10.4363 4.35146 7.9775 6.16431 6.16464C7.97716 4.35179 10.4359 3.33334 12.9997 3.33334ZM12.6663 6.66668C11.075 6.66668 9.54892 7.29882 8.4237 8.42404C7.29848 9.54925 6.66634 11.0754 6.66634 12.6667V27.3333C6.66634 30.65 9.34967 33.3333 12.6663 33.3333H27.333C28.9243 33.3333 30.4504 32.7012 31.5756 31.576C32.7009 30.4508 33.333 28.9246 33.333 27.3333V12.6667C33.333 9.35001 30.6497 6.66668 27.333 6.66668H12.6663ZM28.7497 9.16668C29.3022 9.16668 29.8321 9.38617 30.2228 9.77687C30.6135 10.1676 30.833 10.6975 30.833 11.25C30.833 11.8025 30.6135 12.3324 30.2228 12.7231C29.8321 13.1138 29.3022 13.3333 28.7497 13.3333C28.1971 13.3333 27.6672 13.1138 27.2765 12.7231C26.8858 12.3324 26.6663 11.8025 26.6663 11.25C26.6663 10.6975 26.8858 10.1676 27.2765 9.77687C27.6672 9.38617 28.1971 9.16668 28.7497 9.16668ZM19.9997 11.6667C22.2098 11.6667 24.3294 12.5447 25.8922 14.1075C27.455 15.6703 28.333 17.7899 28.333 20C28.333 22.2101 27.455 24.3298 25.8922 25.8926C24.3294 27.4554 22.2098 28.3333 19.9997 28.3333C17.7895 28.3333 15.6699 27.4554 14.1071 25.8926C12.5443 24.3298 11.6663 22.2101 11.6663 20C11.6663 17.7899 12.5443 15.6703 14.1071 14.1075C15.6699 12.5447 17.7895 11.6667 19.9997 11.6667ZM19.9997 15C18.6736 15 17.4018 15.5268 16.4641 16.4645C15.5265 17.4022 14.9997 18.6739 14.9997 20C14.9997 21.3261 15.5265 22.5979 16.4641 23.5355C17.4018 24.4732 18.6736 25 19.9997 25C21.3258 25 22.5975 24.4732 23.5352 23.5355C24.4729 22.5979 24.9997 21.3261 24.9997 20C24.9997 18.6739 24.4729 17.4022 23.5352 16.4645C22.5975 15.5268 21.3258 15 19.9997 15Z" fill="white"/>
</svg>
