<svg width="40" height="40" viewBox="0 0 40 40" fill="none" xmlns="http://www.w3.org/2000/svg">
<path fill-rule="evenodd" clip-rule="evenodd" d="M36.4003 10.0933C36.473 9.65219 36.4261 9.19963 36.2644 8.78279C36.1027 8.36596 35.8322 8.0001 35.4811 7.72335C35.13 7.4466 34.711 7.26907 34.268 7.20927C33.8249 7.14946 33.3739 7.20957 32.962 7.38333L4.46196 19.3833C2.47529 20.22 2.37362 23.0933 4.46196 23.96C6.5301 24.8217 8.62808 25.61 10.752 26.3233C12.6986 26.9667 14.822 27.5617 16.5236 27.73C16.9886 28.2867 17.5736 28.8233 18.1703 29.3133C19.082 30.0633 20.1786 30.835 21.312 31.575C23.582 33.0583 26.1003 34.4767 27.797 35.4C29.8253 36.5 32.2536 35.2333 32.617 33.0217L36.4003 10.0933ZM7.65696 21.655L32.8636 11.0417L29.3336 32.4417C27.6686 31.5367 25.2703 30.1817 23.1336 28.785C22.1489 28.1527 21.1981 27.469 20.2853 26.7367C20.0413 26.5373 19.8045 26.3294 19.5753 26.1133L26.177 19.5133C26.4897 19.2008 26.6655 18.7769 26.6656 18.3348C26.6658 17.8926 26.4903 17.4686 26.1778 17.1558C25.8653 16.8431 25.4413 16.6673 24.9992 16.6672C24.5571 16.667 24.133 16.8425 23.8203 17.155L16.592 24.3833C15.3686 24.2267 13.6653 23.7733 11.7953 23.1567C10.4031 22.6928 9.02375 22.1915 7.65862 21.6533L7.65696 21.655Z" fill="#003092"/>
</svg>
