<svg width="40" height="40" viewBox="0 0 40 40" fill="none" xmlns="http://www.w3.org/2000/svg">
<path d="M27.2668 23.3333C27.4002 22.2333 27.5002 21.1333 27.5002 20C27.5002 18.8666 27.4002 17.7666 27.2668 16.6666H32.9002C33.1668 17.7333 33.3335 18.85 33.3335 20C33.3335 21.15 33.1668 22.2666 32.9002 23.3333M24.3168 32.6C25.3168 30.75 26.0835 28.75 26.6168 26.6666H31.5335C29.9188 29.4471 27.357 31.5533 24.3168 32.6ZM23.9002 23.3333H16.1002C15.9335 22.2333 15.8335 21.1333 15.8335 20C15.8335 18.8666 15.9335 17.75 16.1002 16.6666H23.9002C24.0502 17.75 24.1668 18.8666 24.1668 20C24.1668 21.1333 24.0502 22.2333 23.9002 23.3333ZM20.0002 33.2666C18.6168 31.2666 17.5002 29.05 16.8168 26.6666H23.1835C22.5002 29.05 21.3835 31.2666 20.0002 33.2666ZM13.3335 13.3333H8.46683C10.0646 10.545 12.6246 8.43538 15.6668 7.39998C14.6668 9.24998 13.9168 11.25 13.3335 13.3333ZM8.46683 26.6666H13.3335C13.9168 28.75 14.6668 30.75 15.6668 32.6C12.6306 31.5538 10.074 29.447 8.46683 26.6666ZM7.10016 23.3333C6.8335 22.2666 6.66683 21.15 6.66683 20C6.66683 18.85 6.8335 17.7333 7.10016 16.6666H12.7335C12.6002 17.7666 12.5002 18.8666 12.5002 20C12.5002 21.1333 12.6002 22.2333 12.7335 23.3333M20.0002 6.71665C21.3835 8.71665 22.5002 10.95 23.1835 13.3333H16.8168C17.5002 10.95 18.6168 8.71665 20.0002 6.71665ZM31.5335 13.3333H26.6168C26.0944 11.2693 25.322 9.27682 24.3168 7.39998C27.3835 8.44998 29.9335 10.5666 31.5335 13.3333ZM20.0002 3.33331C10.7835 3.33331 3.3335 10.8333 3.3335 20C3.3335 24.4203 5.08944 28.6595 8.21505 31.7851C9.76269 33.3327 11.6 34.5604 13.6221 35.398C15.6442 36.2355 17.8115 36.6666 20.0002 36.6666C24.4204 36.6666 28.6597 34.9107 31.7853 31.7851C34.9109 28.6595 36.6668 24.4203 36.6668 20C36.6668 17.8113 36.2357 15.644 35.3982 13.6219C34.5606 11.5998 33.3329 9.76251 31.7853 8.21487C30.2376 6.66722 28.4003 5.43957 26.3782 4.60199C24.3561 3.76441 22.1889 3.33331 20.0002 3.33331Z" fill="black"/>
</svg>
