<svg width="54" height="27" viewBox="0 0 54 27" fill="none" xmlns="http://www.w3.org/2000/svg">
<path d="M40.5083 25.9999L44.4763 15.9519L40.6683 7.50391H45.5003L47.6443 12.2399L49.5323 7.50391H53.4043L49.6283 16.6239L53.8203 25.9999H48.9563L46.5883 20.6559L44.5723 25.9999H40.5083Z" fill="black"/>
<path d="M33.144 26.3201C31.7787 26.3201 30.6374 26.0747 29.72 25.5841C28.8027 25.0721 28.1094 24.3361 27.64 23.3761C27.1707 22.3947 26.936 21.2214 26.936 19.8561V13.6481C26.936 12.2401 27.1707 11.0667 27.64 10.1281C28.1094 9.16808 28.8134 8.44275 29.752 7.95208C30.6907 7.44008 31.8214 7.18408 33.144 7.18408C34.552 7.18408 35.6934 7.44008 36.568 7.95208C37.4427 8.46408 38.0827 9.21075 38.488 10.1921C38.9147 11.1734 39.128 12.3681 39.128 13.7761V17.0081H31.704V20.5921C31.704 21.1254 31.7574 21.5627 31.864 21.9041C31.992 22.2454 32.1627 22.4907 32.376 22.6401C32.5894 22.7681 32.856 22.8321 33.176 22.8321C33.4747 22.8321 33.7307 22.7681 33.944 22.6401C34.1787 22.4907 34.3494 22.2667 34.456 21.9681C34.5627 21.6694 34.616 21.2747 34.616 20.7841V19.0241H39.096V20.5601C39.096 22.4374 38.584 23.8667 37.56 24.8481C36.536 25.8294 35.064 26.3201 33.144 26.3201ZM31.704 14.7041H34.616V12.8801C34.616 12.3467 34.5627 11.9201 34.456 11.6001C34.3494 11.2587 34.1787 11.0241 33.944 10.8961C33.7307 10.7467 33.4534 10.6721 33.112 10.6721C32.792 10.6721 32.5254 10.7467 32.312 10.8961C32.12 11.0454 31.9707 11.3121 31.864 11.6961C31.7574 12.0587 31.704 12.5814 31.704 13.2641V14.7041Z" fill="black"/>
<path d="M19.1069 26.0001V0.0800781H23.9389V26.0001H19.1069Z" fill="black"/>
<path d="M0.671875 26.0001L5.69588 0.0800781H11.5519L16.5439 26.0001H11.6479L10.7199 20.3041H6.62388L5.63188 26.0001H0.671875ZM7.10388 17.0721H10.2079L8.63988 6.60808L7.10388 17.0721Z" fill="black"/>
</svg>
